<svg width="12" height="12" viewBox="0 0 12 12" fill="none" xmlns="http://www.w3.org/2000/svg">
<g clip-path="url(#clip0_33044_154)">
<path d="M6.00098 0.625C3.03245 0.625 0.625977 3.03147 0.625977 6C0.625977 8.96855 3.03245 11.375 6.00098 11.375C8.96953 11.375 11.376 8.96855 11.376 6C11.376 3.03147 8.96953 0.625 6.00098 0.625Z" fill="#D9D9D9"/>
<path d="M3.9 8.7C3.73431 8.86569 3.46569 8.86569 3.3 8.7C3.13431 8.53431 3.13431 8.26569 3.3 8.1L5.4 6L3.3 3.9C3.13431 3.73431 3.13431 3.46569 3.3 3.3C3.46569 3.13431 3.73431 3.13431 3.9 3.3L6 5.4L8.1 3.3C8.26569 3.13431 8.53431 3.13431 8.7 3.3C8.86569 3.46569 8.86569 3.73431 8.7 3.9L6.6 6L8.7 8.1C8.86569 8.26569 8.86569 8.53431 8.7 8.7C8.53431 8.86569 8.26569 8.86569 8.1 8.7L6 6.6L3.9 8.7Z" fill="#A1A1A1"/>
</g>
<defs>
<clipPath id="clip0_33044_154">
<rect width="12" height="12" rx="5" fill="white"/>
</clipPath>
</defs>
</svg>
