<svg width="24" height="24" viewBox="0 0 24 24" fill="none" xmlns="http://www.w3.org/2000/svg">
<path d="M9.5 6.5C9.992 5.994 11.3 4 12 4M12 4C12.7 4 14.008 5.994 14.5 6.5M12 4V10" stroke="#308BF9" stroke-width="1.5" stroke-linecap="round" stroke-linejoin="round"/>
<path d="M18.363 10.6367L16.95 12.0507M3 17.0007H5M5.637 10.6367L7.05 12.0507M21 17.0007H19M21 20.0007H3M16 17.0007C16 15.9399 15.5786 14.9224 14.8284 14.1723C14.0783 13.4221 13.0609 13.0007 12 13.0007C10.9391 13.0007 9.92172 13.4221 9.17157 14.1723C8.42143 14.9224 8 15.9399 8 17.0007" stroke="#308BF9" stroke-width="1.5" stroke-linecap="round"/>
</svg>
