<svg width="67" height="105" viewBox="0 0 67 105" fill="none" xmlns="http://www.w3.org/2000/svg">
<path fill-rule="evenodd" clip-rule="evenodd" d="M12.4198 1.95182C15.6355 -0.1586 20.0246 -1.01242 24.1731 1.73515C29.1143 5.00773 30.1408 11.0175 30.1774 15.7094C30.2056 19.3175 29.6663 23.3395 28.8138 27.435C35.6588 23.352 44.7467 16.4279 56.5336 5.38783C58.5555 3.49409 61.6229 3.35749 63.7995 5.06427C65.976 6.77106 66.6293 9.82541 65.347 12.2991C60.7038 21.2558 55.0242 34.7129 52.8097 46.1052C51.6872 51.88 51.6 56.4265 52.4421 59.439C52.8387 60.8578 53.3857 61.7355 53.9508 62.2938C54.4865 62.823 55.3064 63.3343 56.7316 63.6002C59.7979 64.1722 61.8281 67.1666 61.2662 70.2883C60.7043 73.41 57.7631 75.4769 54.6968 74.9049C51.3306 74.2769 48.404 72.8287 46.0891 70.5416C43.8035 68.2835 42.3958 65.4878 41.5844 62.5848C40.0103 56.9537 40.4938 50.2626 41.7357 43.874C42.6294 39.2765 43.9917 34.4721 45.5962 29.765C37.3256 36.0666 30.449 40.0536 24.7448 42.1389C21.9631 50.517 18.6471 58.5323 16.1916 63.9853C14.8925 66.8703 11.5421 68.1368 8.70841 66.8142C5.87469 65.4916 4.63066 62.0807 5.92978 59.1957C7.77591 55.096 10.0931 49.5604 12.2583 43.6057C10.8225 43.3018 9.45538 42.7897 8.17721 42.0428C4.2003 39.7186 2.25193 35.8085 1.47264 32.0598C-0.0163015 24.8974 2.19976 16.178 5.50504 10.0673C7.17693 6.97639 9.47774 3.88264 12.4198 1.95182ZM15.9145 32.4556C16.2062 31.4393 16.4831 30.4285 16.7423 29.4281C18.1325 24.0617 18.9167 19.3475 18.889 15.8008C18.8752 14.0373 18.6599 12.8363 18.3955 12.09C18.3554 11.9769 18.3163 11.8802 18.2795 11.798C17.5372 12.3846 16.4772 13.608 15.3936 15.6113C12.9239 20.1773 11.762 26.049 12.5168 29.6801C12.8594 31.3282 13.4384 31.8656 13.7973 32.0753C14.0558 32.2264 14.6846 32.4889 15.9145 32.4556Z" fill="white"/>
<path d="M30.5831 89.8187C29.699 90.7028 28.4018 90.9716 27.2023 90.6184C27.0379 90.5695 26.878 90.5451 26.7225 90.5451C26.3893 90.5451 26.1294 90.6162 25.9406 90.7561C25.7518 90.8961 25.6585 91.0715 25.6585 91.2826C25.6585 91.4425 25.7185 91.5891 25.8384 91.7224C25.9584 91.8557 26.2516 92.0378 26.7225 92.2711L27.8065 92.813C28.9482 93.3773 29.7323 93.9526 30.1611 94.5368C30.5876 95.1232 30.8008 95.8096 30.8008 96.5981C30.8008 97.6466 30.4165 98.5218 29.6457 99.2237C28.8749 99.9257 27.8442 100.277 26.5492 100.277C24.8277 100.277 23.455 99.6036 22.4287 98.2597L23.0107 97.6266C23.6371 96.9447 24.6411 96.8092 25.4586 97.249L25.4719 97.2557C25.9384 97.5044 26.3515 97.6288 26.7136 97.6288C27.1045 97.6288 27.4178 97.5355 27.6577 97.3467C27.8953 97.1579 28.0153 96.9424 28.0153 96.6959C28.0153 96.2405 27.5844 95.7963 26.7247 95.3609L25.7273 94.8611C23.8148 93.9015 22.8596 92.6975 22.8596 91.2493C22.8596 90.3163 23.2195 89.5189 23.9392 88.8569C24.6589 88.1972 25.5785 87.8662 26.7003 87.8662C27.4666 87.8662 28.1885 88.035 28.8638 88.3704C29.5391 88.7059 30.1122 89.1901 30.5831 89.8187Z" fill="white"/>
<path d="M35.3614 89.4722C35.8967 88.9369 36.4742 88.5348 37.0962 88.2683C37.7182 88.0017 38.3823 87.8662 39.0909 87.8662C40.6303 87.8662 41.9409 88.4482 43.0182 89.6122C44.0955 90.7761 44.6353 92.2688 44.6353 94.0925C44.6353 95.9162 44.0778 97.3201 42.9649 98.5018C41.852 99.6835 40.5326 100.274 39.0065 100.274C38.3268 100.274 37.6937 100.152 37.1095 99.9101C36.5253 99.668 35.9411 99.2726 35.3636 98.7217V104.286C33.7398 104.286 32.4248 102.971 32.4248 101.347V88.1705H34.0619C34.7816 88.1705 35.3636 88.7525 35.3636 89.4722H35.3614ZM38.4734 90.6006C37.5405 90.6006 36.7674 90.9183 36.1521 91.5558C35.5368 92.1933 35.2303 93.0241 35.2303 94.0503C35.2303 95.0766 35.5368 95.9473 36.1521 96.5937C36.7497 97.2223 37.496 97.5444 38.3934 97.5644C39.2064 97.58 40.0083 97.2912 40.6014 96.7359C41.3233 96.0562 41.6854 95.1654 41.6854 94.0636C41.6854 93.0507 41.3811 92.2222 40.7747 91.5736C40.1683 90.9272 39.3997 90.6029 38.4756 90.6029L38.4734 90.6006Z" fill="white"/>
<path d="M60.1909 88.1705H61.2438C62.0635 88.1705 62.7299 88.8347 62.7299 89.6566C63.0053 89.0702 63.3696 88.6259 63.825 88.3216C64.2803 88.0173 64.7801 87.8662 65.3221 87.8662C65.7042 87.8662 66.1062 87.9684 66.5261 88.1705L66.0174 89.5766C65.8241 90.1075 65.3199 90.4629 64.7535 90.4607H64.7468C64.2914 90.4607 63.9072 90.7428 63.5917 91.307C63.2763 91.8712 63.1208 92.9774 63.1208 94.6256L63.1319 95.2009V99.9723C61.5081 99.9723 60.1931 98.6573 60.1931 97.0335V88.1705H60.1909Z" fill="white"/>
<path d="M0.660156 88.1705H1.71305C2.53271 88.1705 3.1991 88.8347 3.1991 89.6566C3.47454 89.0702 3.83884 88.6259 4.2942 88.3216C4.74957 88.0173 5.24937 87.8662 5.79136 87.8662C6.17343 87.8662 6.57548 87.9684 6.99531 88.1705L6.48663 89.5766C6.29337 90.1075 5.78914 90.4629 5.2227 90.4607H5.21604C4.76067 90.4607 4.37639 90.7428 4.06097 91.307C3.74554 91.8712 3.59005 92.9774 3.59005 94.6256L3.60116 95.2009V99.9723C1.97739 99.9723 0.662376 98.6573 0.662376 97.0335V88.1705H0.660156Z" fill="white"/>
<path d="M46.1968 87.8662C48.0294 87.8662 49.6798 88.9702 50.3795 90.6628L52.2876 95.272L54.4089 90.6273C55.1775 88.9458 56.8546 87.8662 58.7049 87.8662L52.5897 101.203C51.8122 102.898 50.1196 103.982 48.2559 103.982L50.4239 99.337C50.5883 98.9838 50.5972 98.5795 50.4506 98.2197L46.1968 87.8662Z" fill="white"/>
<path d="M20.8651 94.8168H11.4832C11.619 95.6436 11.9827 96.2997 12.5699 96.7852C13.1571 97.2708 13.9108 97.5157 14.8223 97.5157C15.4533 97.5157 16.0317 97.3889 16.5576 97.1352C17.3814 96.7415 18.3279 96.6977 19.1518 97.0827L19.8748 97.4195C19.9887 97.472 20.0282 97.6207 19.9493 97.7213C19.3665 98.4912 18.6785 99.0642 17.8897 99.4491C17.0352 99.8647 16.0186 100.075 14.8398 100.075C13.0125 100.075 11.527 99.5016 10.3789 98.3512C9.23079 97.2095 8.65674 95.7704 8.65674 94.0382C8.65674 92.306 9.23079 90.7926 10.3745 89.6246C11.5182 88.4524 12.9555 87.8662 14.6821 87.8662C16.5138 87.8662 18.0037 88.4524 19.1561 89.6246C20.3042 90.7969 20.8783 92.341 20.8783 94.2657L20.8695 94.8212L20.8651 94.8168ZM17.9423 92.5204C17.7495 91.873 17.3683 91.3437 16.803 90.9413C16.2333 90.5345 15.576 90.3333 14.8267 90.3333C14.0116 90.3333 13.2973 90.5607 12.6838 91.0156C12.2982 91.3 11.9389 91.803 11.6102 92.5204H17.9423Z" fill="white"/>
</svg>
