<svg width="20" height="20" viewBox="0 0 20 20" fill="none" xmlns="http://www.w3.org/2000/svg">
<path d="M5.56917 4.1688C4.43167 4.22047 3.72917 4.38047 3.2325 4.87797C2.5 5.6113 2.5 6.79214 2.5 9.15297V13.3271C2.5 15.688 2.5 16.8688 3.2325 17.6021C3.96417 18.3355 5.14333 18.3355 7.5 18.3355H12.5C14.8567 18.3355 16.0358 18.3355 16.7675 17.6021C17.4992 16.8688 17.5 15.688 17.5 13.3271V9.15213C17.5 6.7913 17.5 5.61047 16.7675 4.87714C16.2708 4.37964 15.5675 4.2188 14.4308 4.16797" stroke="#B388EB" stroke-linejoin="round"/>
<path d="M5.85523 5.4513C5.45523 3.88464 5.25523 3.1013 5.58023 2.5263C5.66731 2.37314 5.77813 2.23476 5.90856 2.1163C6.3994 1.66797 7.22523 1.66797 8.87606 1.66797H11.1261C12.7769 1.66797 13.6027 1.66797 14.0936 2.1163C14.2244 2.23547 14.3352 2.37464 14.4219 2.52714C14.7469 3.10214 14.5469 3.88547 14.1469 5.45214C13.8269 6.70047 13.6677 7.32464 13.2411 7.73547C13.1244 7.84825 12.9963 7.9463 12.8569 8.02964C12.3452 8.33464 11.6869 8.33464 10.3711 8.33464H9.63106C8.3144 8.33464 7.65606 8.33464 7.14523 8.02964C7.00692 7.94644 6.87835 7.84805 6.7619 7.7363C6.3344 7.32463 6.1744 6.70047 5.85523 5.4513Z" stroke="#B388EB" stroke-linejoin="round"/>
<path d="M8.33203 15.0026H11.6654M9.58203 8.33594L10.4154 5.83594" stroke="#B388EB" stroke-linecap="round" stroke-linejoin="round"/>
</svg>
